<svg width="20" height="20" viewBox="0 0 20 20" fill="none" xmlns="http://www.w3.org/2000/svg">
<path d="M17.5013 4.16699H2.5013C2.28029 4.16699 2.06833 4.25479 1.91205 4.41107C1.75577 4.56735 1.66797 4.77931 1.66797 5.00033C1.66797 5.22134 1.75577 5.4333 1.91205 5.58958C2.06833 5.74586 2.28029 5.83366 2.5013 5.83366H4.16797V15.8337C4.16817 16.4966 4.43162 17.1324 4.90042 17.6012C5.36922 18.07 6.00499 18.3335 6.66797 18.3337H13.3346C13.9976 18.3335 14.6334 18.07 15.1022 17.6012C15.571 17.1324 15.8345 16.4966 15.8346 15.8337V5.83366H17.5013C17.7223 5.83366 17.9343 5.74586 18.0906 5.58958C18.2468 5.4333 18.3346 5.22134 18.3346 5.00033C18.3346 4.77931 18.2468 4.56735 18.0906 4.41107C17.9343 4.25479 17.7223 4.16699 17.5013 4.16699ZM9.16797 13.3337C9.16797 13.5547 9.08017 13.7666 8.92389 13.9229C8.76761 14.0792 8.55565 14.167 8.33464 14.167C8.11362 14.167 7.90166 14.0792 7.74538 13.9229C7.5891 13.7666 7.5013 13.5547 7.5013 13.3337V9.16699C7.5013 8.94598 7.5891 8.73402 7.74538 8.57774C7.90166 8.42146 8.11362 8.33366 8.33464 8.33366C8.55565 8.33366 8.76761 8.42146 8.92389 8.57774C9.08017 8.73402 9.16797 8.94598 9.16797 9.16699V13.3337ZM12.5013 13.3337C12.5013 13.5547 12.4135 13.7666 12.2572 13.9229C12.1009 14.0792 11.889 14.167 11.668 14.167C11.447 14.167 11.235 14.0792 11.0787 13.9229C10.9224 13.7666 10.8346 13.5547 10.8346 13.3337V9.16699C10.8346 8.94598 10.9224 8.73402 11.0787 8.57774C11.235 8.42146 11.447 8.33366 11.668 8.33366C11.889 8.33366 12.1009 8.42146 12.2572 8.57774C12.4135 8.73402 12.5013 8.94598 12.5013 9.16699V13.3337Z" fill="white"/>
<path d="M8.33333 3.33366H11.6667C11.8877 3.33366 12.0996 3.24586 12.2559 3.08958C12.4122 2.9333 12.5 2.72134 12.5 2.50033C12.5 2.27931 12.4122 2.06735 12.2559 1.91107C12.0996 1.75479 11.8877 1.66699 11.6667 1.66699H8.33333C8.11232 1.66699 7.90036 1.75479 7.74408 1.91107C7.5878 2.06735 7.5 2.27931 7.5 2.50033C7.5 2.72134 7.5878 2.9333 7.74408 3.08958C7.90036 3.24586 8.11232 3.33366 8.33333 3.33366Z" fill="white"/>
</svg>
