<svg width="32" height="32" viewBox="0 0 32 32" fill="none" xmlns="http://www.w3.org/2000/svg">
<path d="M10.3333 16C10.3333 17.2887 9.28867 18.3333 8.00001 18.3333C6.71134 18.3333 5.66667 17.2887 5.66667 16C5.66667 14.7113 6.71134 13.6667 8.00001 13.6667C9.28867 13.6667 10.3333 14.7113 10.3333 16ZM18.3333 16C18.3333 17.2887 17.2887 18.3333 16 18.3333C14.7113 18.3333 13.6667 17.2887 13.6667 16C13.6667 14.7113 14.7113 13.6667 16 13.6667C17.2887 13.6667 18.3333 14.7113 18.3333 16ZM24 18.3333C25.2887 18.3333 26.3333 17.2887 26.3333 16C26.3333 14.7113 25.2887 13.6667 24 13.6667C22.7113 13.6667 21.6667 14.7113 21.6667 16C21.6667 17.2887 22.7113 18.3333 24 18.3333Z" fill="#E1E1E1"/>
</svg>
