<svg width="20" height="20" viewBox="0 0 20 20" fill="none" xmlns="http://www.w3.org/2000/svg">
<path d="M10.2297 6L3.69821 12.5428C3.45754 12.7843 3.30543 13.1002 3.26659 13.4393L3.00635 15.7283C2.98939 15.8893 3.00651 16.052 3.0566 16.2059C3.10669 16.3598 3.18862 16.5014 3.29704 16.6214C3.40547 16.7414 3.53794 16.8371 3.68582 16.9024C3.83369 16.9676 3.99364 17.0009 4.15522 17H4.28852L6.57357 16.7393C6.91069 16.7002 7.22539 16.5504 7.46855 16.3133L14 9.76416L10.2297 6Z" fill="white"/>
<path d="M16.5416 5.18852L14.8115 3.45844C14.6668 3.31314 14.4948 3.19784 14.3054 3.11917C14.116 3.0405 13.9129 3 13.7078 3C13.5027 3 13.2997 3.0405 13.1103 3.11917C12.9209 3.19784 12.7489 3.31314 12.6041 3.45844L11 5.06258L14.9374 9L16.5416 7.39586C16.6869 7.25114 16.8022 7.07914 16.8808 6.88974C16.9595 6.70035 17 6.49728 17 6.29219C17 6.08711 16.9595 5.88404 16.8808 5.69464C16.8022 5.50525 16.6869 5.33325 16.5416 5.18852Z" fill="white"/>
</svg>
