<svg width="24" height="16" viewBox="0 0 24 16" fill="none" xmlns="http://www.w3.org/2000/svg">
<g clip-path="url(#clip0_1_889)">
<path d="M21.9972 15.7499L21.9994 15.7499C22.9545 15.7581 23.7381 14.9773 23.75 14.0042L23.75 2.0063C23.7462 1.53569 23.5589 1.08617 23.2297 0.756802C22.9014 0.428269 22.4589 0.246149 21.9972 0.250071L2.00064 0.250062C1.54109 0.246149 1.09858 0.428269 0.770279 0.756802C0.441145 1.08617 0.253838 1.53569 0.250008 2.00426L0.25 13.9937C0.253838 14.4643 0.441145 14.9138 0.770279 15.2432C1.09858 15.5717 1.54109 15.7538 2.00277 15.7499H21.9972ZM21.9962 16.2499C21.9958 16.2499 21.9955 16.2499 21.9951 16.2499L21.9972 16.2499H21.9962Z" fill="white" stroke="black" stroke-opacity="0.2" stroke-width="0.5"/>
<path d="M9.99961 2.05213V2.03613H13.9996V2.05213C17.135 2.28157 19.5617 4.89232 19.5617 8.03613C19.5617 11.18 17.135 13.7907 13.9996 14.0201V14.0361H9.99961V14.0201C6.86418 13.7907 4.4375 11.18 4.4375 8.03613C4.4375 4.89232 6.86418 2.28157 9.99961 2.05213Z" fill="#0165AC"/>
<path d="M11.6031 11.4279C13.0384 10.9177 13.9972 9.55924 13.9972 8.03594C13.9972 6.51264 13.0384 5.15422 11.6031 4.64394V11.4279ZM9.20312 4.64394C7.76784 5.15422 6.80908 6.51264 6.80908 8.03594C6.80908 9.55924 7.76784 10.9177 9.20312 11.4279V4.64394ZM10.4031 13.2359C7.53124 13.2359 5.20312 10.9078 5.20312 8.03594C5.20312 5.16406 7.53124 2.83594 10.4031 2.83594C13.275 2.83594 15.6031 5.16406 15.6031 8.03594C15.6031 10.9078 13.275 13.2359 10.4031 13.2359Z" fill="white"/>
</g>
<defs>
<clipPath id="clip0_1_889">
<rect width="24" height="16" fill="white"/>
</clipPath>
</defs>
</svg>
