<svg width="97" height="34" viewBox="0 0 97 34" fill="none" xmlns="http://www.w3.org/2000/svg">
<g clip-path="url(#clip0_1_332)">
<path d="M42.0332 33.5095H34.1756L39.0903 0.596588H46.9476L42.0332 33.5095Z" fill="#202DE4"/>
<path d="M70.5162 1.4012C68.9663 0.735257 66.5081 -3.05176e-05 63.4685 -3.05176e-05C55.7088 -3.05176e-05 50.2444 4.48149 50.2109 10.8887C50.1465 15.616 54.1232 18.2416 57.0975 19.8178C60.1375 21.4284 61.1709 22.4797 61.1709 23.9154C61.14 26.1203 58.7144 27.1367 56.4521 27.1367C53.315 27.1367 51.6341 26.6127 49.0796 25.386L48.0449 24.8601L46.9453 32.2483C48.7882 33.1577 52.1836 33.9646 55.7088 34C63.9536 34 69.3212 29.5878 69.3848 22.7599C69.4162 19.0132 67.3163 16.1423 62.7891 13.7964C60.0409 12.2904 58.3578 11.275 58.3578 9.73414C58.39 8.33337 59.7813 6.89863 62.8837 6.89863C65.4382 6.82836 67.315 7.49337 68.7369 8.15886L69.4476 8.50835L70.5162 1.4012Z" fill="#202DE4"/>
<path d="M80.9618 21.8496C81.6089 19.9588 84.099 12.6409 84.099 12.6409C84.0663 12.7111 84.7448 10.7152 85.1328 9.48983L85.6819 12.3258C85.6819 12.3258 87.1699 20.2041 87.493 21.8496C86.265 21.8496 82.5138 21.8496 80.9618 21.8496ZM90.6611 0.596588H84.5832C82.7089 0.596588 81.2849 1.19133 80.4763 3.32739L68.8047 33.509H77.0495C77.0495 33.509 78.4069 29.4468 78.6987 28.5719C79.6031 28.5719 87.6237 28.5719 88.7873 28.5719C89.0128 29.7274 89.7248 33.509 89.7248 33.509H97.0003L90.6611 0.596588Z" fill="#202DE4"/>
<path d="M27.6109 0.596588L19.9156 23.04L19.0747 18.4882C17.652 13.2361 13.1901 7.52969 8.21094 4.69232L15.2595 33.4746H23.5688L35.9197 0.596588H27.6109Z" fill="#202DE4"/>
<path d="M12.7716 0.596588H0.129335L0 1.2616C9.86174 3.99287 16.393 10.5765 19.0764 18.4896L16.3281 3.36322C15.8756 1.26114 14.4852 0.665928 12.7716 0.596588Z" fill="#202DE4"/>
</g>
<defs>
<clipPath id="clip0_1_332">
<rect width="97" height="34" fill="white"/>
</clipPath>
</defs>
</svg>
